<?xml version="1.0" standalone="no"?>
<!DOCTYPE svg PUBLIC "-//W3C//DTD SVG 20010904//EN"
 "http://www.w3.org/TR/2001/REC-SVG-20010904/DTD/svg10.dtd">
<svg version="1.0" xmlns="http://www.w3.org/2000/svg"
 width="500.000000pt" height="500.000000pt" viewBox="0 0 500.000000 500.000000"
 preserveAspectRatio="xMidYMid meet">

<g transform="translate(0.000000,500.000000) scale(0.100000,-0.100000)"
fill="#000000" stroke="none">
<path d="M1600 4513 c-125 -168 -168 -386 -116 -585 52 -196 130 -324 298
-490 65 -65 112 -118 104 -118 -31 0 -159 50 -206 80 -97 62 -189 192 -190
268 -1 83 -57 -18 -85 -153 -40 -196 33 -487 164 -652 44 -55 146 -128 193
-138 15 -4 28 -10 28 -14 0 -4 -32 -29 -71 -56 -196 -134 -383 -384 -473 -633
-84 -234 -90 -574 -15 -817 70 -226 196 -427 370 -588 186 -173 389 -276 654
-333 121 -26 369 -23 502 5 516 109 906 487 1034 1001 30 121 37 360 15 497
-77 488 -423 899 -884 1053 -76 25 -171 46 -294 65 l-36 6 33 49 c82 122 114
291 84 456 -12 69 -52 195 -78 243 l-18 34 -6 -45 c-8 -55 -50 -189 -82 -259
l-24 -54 0 101 c-1 131 -26 231 -91 359 -66 131 -122 199 -273 334 -125 111
-153 148 -164 219 -5 29 -8 33 -14 17 -14 -36 -9 -112 11 -177 23 -75 80 -167
158 -255 30 -35 50 -63 45 -63 -28 0 -240 119 -318 178 -189 143 -265 304
-221 470 7 29 12 52 11 52 -1 0 -21 -26 -45 -57z m463 -877 c108 -88 185 -209
250 -393 23 -64 50 -121 60 -127 26 -17 63 9 132 91 40 48 62 68 67 60 25 -39
-1 -212 -45 -305 l-22 -47 -90 -7 c-169 -14 -338 -57 -474 -121 l-65 -30 -62
65 c-44 47 -77 96 -113 168 -28 56 -51 108 -51 115 0 9 22 2 68 -21 56 -29 78
-35 133 -35 164 -1 216 52 198 203 -11 93 -40 172 -125 341 -41 81 -74 152
-74 158 0 16 153 -67 213 -115z m377 -915 c0 -33 3 -67 6 -76 10 -25 51 -37
77 -24 33 18 37 28 37 97 l0 63 58 -6 c124 -15 306 -66 394 -111 l29 -15 -31
-54 c-35 -61 -33 -99 6 -117 38 -18 67 -3 99 52 16 27 33 50 38 50 15 0 130
-93 194 -157 34 -34 83 -90 108 -124 l46 -62 -51 -30 c-60 -35 -79 -65 -62
-102 18 -39 53 -41 117 -6 l57 30 28 -62 c45 -100 79 -228 95 -364 l7 -53 -59
0 c-71 0 -103 -19 -103 -60 0 -46 23 -60 97 -60 l66 0 -7 -72 c-14 -133 -99
-408 -127 -408 -5 0 -27 11 -49 25 -52 33 -94 33 -116 0 -25 -38 -12 -66 51
-103 l55 -33 -32 -47 c-49 -70 -185 -209 -256 -259 -35 -25 -64 -44 -66 -42
-2 2 -16 26 -31 52 -35 60 -64 76 -99 54 -40 -26 -41 -51 -7 -112 17 -30 31
-57 31 -59 0 -2 -33 -18 -74 -35 -101 -42 -246 -80 -333 -88 l-73 -6 0 63 c0
71 -17 100 -58 100 -46 0 -62 -26 -62 -98 l0 -65 -75 6 c-83 7 -200 35 -284
67 -48 19 -110 47 -119 55 -2 2 11 28 29 60 27 48 30 60 20 81 -6 13 -22 29
-35 36 -34 15 -65 -6 -97 -66 -13 -25 -27 -46 -30 -46 -15 0 -134 95 -190 151
-61 63 -146 167 -151 187 -2 6 19 26 46 44 65 44 75 61 56 96 -22 38 -66 41
-119 8 -22 -14 -45 -26 -49 -26 -34 0 -132 336 -132 451 0 29 0 29 64 29 73 0
96 14 96 60 0 42 -32 60 -104 60 l-59 0 7 73 c4 41 17 115 31 165 26 96 84
245 94 240 3 -2 30 -16 60 -31 61 -33 95 -30 113 8 16 36 -2 67 -59 100 -26
15 -50 29 -52 31 -5 5 66 98 124 162 51 57 203 182 220 182 6 0 24 -22 40 -50
16 -27 38 -53 48 -56 31 -10 67 5 78 33 8 21 4 36 -21 85 l-31 59 66 30 c98
44 290 92 393 98 20 1 22 -3 22 -58z"/>
<path d="M2370 2484 c-144 -28 -274 -79 -370 -144 -223 -152 -362 -374 -399
-641 -11 -79 1 -250 23 -335 52 -199 167 -373 327 -493 97 -74 166 -110 274
-144 438 -138 894 62 1091 478 49 104 53 126 24 155 -43 43 -81 20 -120 -72
-86 -206 -256 -362 -478 -442 -83 -30 -94 -31 -242 -31 -179 0 -239 14 -373
88 -182 99 -308 252 -373 452 -38 117 -45 297 -15 415 72 284 273 491 558 572
111 32 295 32 407 0 320 -91 546 -365 572 -692 4 -41 13 -85 20 -97 17 -27 65
-31 88 -7 33 32 13 208 -39 354 -97 268 -316 471 -602 556 -71 21 -113 27
-218 29 -71 2 -141 1 -155 -1z"/>
<path d="M2215 2181 c-44 -22 -105 -59 -136 -84 -96 -77 -194 -229 -206 -318
-5 -31 -2 -39 18 -52 18 -11 155 -37 198 -37 3 0 5 -46 5 -102 l-2 -103 -53
-7 c-30 -4 -73 -10 -96 -13 -85 -12 -92 -49 -32 -173 32 -67 58 -102 122 -167
69 -69 98 -90 178 -129 81 -39 100 -45 122 -37 34 13 43 33 52 116 11 117 9
113 66 104 27 -4 71 -4 99 0 56 9 54 14 66 -112 11 -116 44 -132 158 -79 149
70 266 189 332 338 47 106 30 128 -106 147 l-92 12 -2 102 -1 101 90 12 c145
18 160 42 105 158 -77 162 -205 285 -358 342 -62 24 -96 20 -113 -11 -22 -42
-4 -66 82 -110 94 -47 163 -107 220 -193 l41 -61 -29 -6 c-70 -16 -97 -10
-123 26 -35 47 -109 103 -172 128 -50 19 -78 22 -249 22 0 0 -6 45 -14 99 -19
143 -36 151 -170 87z m60 -186 c6 -53 5 -57 -22 -78 -35 -27 -93 -88 -93 -99
0 -9 -61 -9 -103 1 l-28 6 29 46 c47 73 164 179 197 179 8 0 15 -22 20 -55z
m348 -146 c58 -29 104 -75 135 -134 36 -68 38 -188 5 -251 -36 -67 -70 -101
-135 -133 -188 -94 -401 29 -416 240 -4 57 -1 75 22 125 42 91 111 151 201
175 47 13 141 1 188 -22z m-413 -549 l70 -71 -6 -54 c-4 -30 -10 -55 -13 -55
-28 0 -148 104 -191 166 -47 68 -45 71 57 83 7 0 44 -31 83 -69z m747 55 c31
-10 -86 -153 -165 -204 -27 -17 -51 -31 -54 -31 -3 0 -9 24 -12 54 l-7 54 68
70 c67 69 69 69 113 65 25 -3 51 -6 57 -8z"/>
<path d="M2437 1810 c-55 -44 -42 -130 24 -163 39 -19 75 -12 111 20 40 36 27
127 -21 153 -32 16 -86 12 -114 -10z m93 -55 c14 -17 5 -51 -16 -59 -22 -8
-54 11 -54 32 0 38 46 56 70 27z"/>
<path d="M2312 1675 c-64 -28 -75 -114 -20 -160 42 -35 91 -34 129 4 49 50 32
138 -32 160 -39 13 -36 14 -77 -4z m68 -59 c6 -8 10 -25 8 -38 -4 -30 -46 -38
-65 -12 -17 23 -16 29 3 48 19 20 38 20 54 2z"/>
<path d="M2603 1675 c-38 -16 -53 -42 -53 -90 0 -50 44 -95 94 -95 105 0 137
146 41 186 -41 17 -42 17 -82 -1z m71 -67 c21 -30 4 -60 -32 -56 -30 3 -42 39
-22 64 17 20 36 17 54 -8z"/>
<path d="M2451 1526 c-56 -31 -66 -99 -22 -148 73 -82 203 1 161 103 -22 51
-88 73 -139 45z m79 -61 c26 -32 -13 -81 -47 -59 -35 22 -23 74 17 74 10 0 23
-7 30 -15z"/>
</g>
</svg>
