<?xml version="1.0" standalone="no"?><svg xmlns="http://www.w3.org/2000/svg" viewBox="0 0 1440 320"><path fill="#FFB50D" fill-opacity="1" d="M0,32L13.3,53.3C26.7,75,53,117,80,117.3C106.7,117,133,75,160,96C186.7,117,213,203,240,250.7C266.7,299,293,309,320,282.7C346.7,256,373,192,400,170.7C426.7,149,453,171,480,160C506.7,149,533,107,560,96C586.7,85,613,107,640,133.3C666.7,160,693,192,720,218.7C746.7,245,773,267,800,266.7C826.7,267,853,245,880,240C906.7,235,933,245,960,261.3C986.7,277,1013,299,1040,272C1066.7,245,1093,171,1120,144C1146.7,117,1173,139,1200,149.3C1226.7,160,1253,160,1280,181.3C1306.7,203,1333,245,1360,250.7C1386.7,256,1413,224,1427,208L1440,192L1440,0L1426.7,0C1413.3,0,1387,0,1360,0C1333.3,0,1307,0,1280,0C1253.3,0,1227,0,1200,0C1173.3,0,1147,0,1120,0C1093.3,0,1067,0,1040,0C1013.3,0,987,0,960,0C933.3,0,907,0,880,0C853.3,0,827,0,800,0C773.3,0,747,0,720,0C693.3,0,667,0,640,0C613.3,0,587,0,560,0C533.3,0,507,0,480,0C453.3,0,427,0,400,0C373.3,0,347,0,320,0C293.3,0,267,0,240,0C213.3,0,187,0,160,0C133.3,0,107,0,80,0C53.3,0,27,0,13,0L0,0Z"></path></svg>