<?xml version="1.0" standalone="no"?><svg xmlns="http://www.w3.org/2000/svg" viewBox="0 0 1440 320"><path fill="#0664CC" fill-opacity="1" d="M0,128L10,122.7C20,117,40,107,60,112C80,117,100,139,120,128C140,117,160,75,180,96C200,117,220,203,240,213.3C260,224,280,160,300,160C320,160,340,224,360,229.3C380,235,400,181,420,181.3C440,181,460,235,480,266.7C500,299,520,309,540,298.7C560,288,580,256,600,229.3C620,203,640,181,660,186.7C680,192,700,224,720,213.3C740,203,760,149,780,117.3C800,85,820,75,840,80C860,85,880,107,900,122.7C920,139,940,149,960,160C980,171,1000,181,1020,165.3C1040,149,1060,107,1080,122.7C1100,139,1120,213,1140,208C1160,203,1180,117,1200,85.3C1220,53,1240,75,1260,101.3C1280,128,1300,160,1320,154.7C1340,149,1360,107,1380,101.3C1400,96,1420,128,1430,144L1440,160L1440,0L1430,0C1420,0,1400,0,1380,0C1360,0,1340,0,1320,0C1300,0,1280,0,1260,0C1240,0,1220,0,1200,0C1180,0,1160,0,1140,0C1120,0,1100,0,1080,0C1060,0,1040,0,1020,0C1000,0,980,0,960,0C940,0,920,0,900,0C880,0,860,0,840,0C820,0,800,0,780,0C760,0,740,0,720,0C700,0,680,0,660,0C640,0,620,0,600,0C580,0,560,0,540,0C520,0,500,0,480,0C460,0,440,0,420,0C400,0,380,0,360,0C340,0,320,0,300,0C280,0,260,0,240,0C220,0,200,0,180,0C160,0,140,0,120,0C100,0,80,0,60,0C40,0,20,0,10,0L0,0Z"></path></svg>